# AST/ASF file generated using VICON BodyLanguage
# -----------------------------------------------
:version 1.10
:name VICON
:units
  mass 1.0
  length 0.45
  angle deg
:documentation
   .ast/.asf automatically generated from VICON data using
   VICON BodyBuilder and BodyLanguage model FoxedUp or BRILLIANT.MOD
:root
   order TX TY TZ RX RY RZ
   axis XYZ
   position 0 0 0  
   orientation 0 0 0 
:bonedata
  begin
     id 1 
     name lhipjoint
     direction 0.612567 -0.751349 0.245431 
     length 2.42285 
     axis 0 0 0  XYZ
  end
  begin
     id 2 
     name lfemur
     direction 0.34202 -0.939693 0  
     length 7.11304  
     axis 0 0 20  XYZ
    dof rx ry rz
    limits (-160.0 20.0)
           (-70.0 70.0)
           (-60.0 70.0)
  end
  begin
     id 3 
     name ltibia
     direction 0.34202 -0.939693 0   
     length 7.84529   
     axis 0 0 20   XYZ
    dof rx
    limits (-10.0 170.0)
  end
  begin
     id 4 
     name lfoot
     direction 0.0779239 -0.214094 0.9737   
     length 1.97176   
     axis -90 7.62852e-016 20   XYZ
    dof rx rz
    limits (-45.0 90.0)
           (-70.0 20.0)
  end
  begin
     id 5 
     name ltoes
     direction 1.53565e-011 -4.21709e-011 1   
     length 0.993197   
     axis -90 7.62852e-016 20   XYZ
    dof rx
    limits (-90.0 20.0)
  end
  begin
     id 6 
     name rhipjoint
     direction -0.665722 -0.709315 0.231701   
     length 2.56642  
     axis 0 0 0  XYZ 
  end
  begin
     id 7 
     name rfemur
     direction -0.34202 -0.939693 0   
     length 7.32108   
     axis 0 0 -20   XYZ
    dof rx ry rz
    limits (-160.0 20.0)
           (-70.0 70.0)
           (-70.0 60.0)
  end
  begin
     id 8 
     name rtibia
     direction -0.34202 -0.939693 0   
     length 7.81254   
     axis 0 0 -20   XYZ
    dof rx
    limits (-10.0 170.0)
 end
 begin
     id 9 
     name rfoot
     direction -0.0832806 -0.228812 0.969902   
     length 2.08278  
     axis -90 -7.62852e-016 -20   XYZ
    dof rx rz
    limits (-45.0 90.0)
           (-20.0 70.0)
  end
  begin
     id 10 
     name rtoes
     direction -1.53589e-011 -4.22086e-011 1   
     length 1.04609   
     axis -90 -7.62852e-016 -20   XYZ
    dof rx
    limits (-90.0 20.0)
  end
  begin
     id 11 
     name lowerback
     direction -0.00506013 0.988403 -0.151766   
     length 2.01978   
     axis 0 0 0   XYZ
    dof rx ry rz
    limits (-20.0 45.0)
           (-30.0 30.0)
           (-30.0 30.0)
  end
  begin
     id 12 
     name upperback
     direction -0.00836389 0.99968 0.0238859   
     length 2.01276   
     axis 0 0 0   XYZ
    dof rx ry rz
    limits (-20.0 45.0)
           (-30.0 30.0)
           (-30.0 30.0)
  end
  begin
     id 13 
     name thorax
     direction -0.00684136 0.995386 0.0957043   
     length 2.07303   
     axis 0 0 0   XYZ
    dof rx ry rz
    limits (-20.0 45.0)
           (-30.0 30.0)
           (-30.0 30.0)
  end
  begin
     id 14 
     name lowerneck
     direction -0.0161045 0.999661 0.0204485   
     length 1.91243   
     axis 0 0 0   XYZ
    dof rx ry rz
    limits (-20.0 45.0)
           (-30.0 30.0)
           (-30.0 30.0)
  end
  begin
     id 15 
     name upperneck
     direction 0.0553583 0.990946 -0.122319   
     length 1.91574   
     axis 0 0 0   XYZ
    dof rx ry rz
    limits (-20.0 45.0)
           (-30.0 30.0)
           (-30.0 30.0)
  end
  begin
     id 16
     name head
     direction 0.0180273 0.998839 -0.0446756  
     length 1.92693  
     axis 0 0 0   XYZ
    dof rx ry rz
    limits (-20.0 45.0)
           (-30.0 30.0)
           (-30.0 30.0)
  end
  begin
     id 17 
     name lclavicle
     direction 0.945646 0.319323 -0.0615358  
     length 4.0076  
     axis 0 0 0   XYZ
    dof ry rz
    limits (-20.0 10.0)
           (0.0 20.0)
  end
  begin
     id 18 
     name lhumerus
     direction 1 -4.48967e-011 -2.79996e-027   
     length 5.64147   
     axis 180 -30 -90   XYZ
    dof rx ry rz
    limits (-60.0 90.0)
           (-90.0 90.0)
           (-90.0 90.0)
  end
  begin
     id 19
     name lradius
     direction 1 -4.48976e-011 -9.5122e-027   
     length 2.86444   
     axis 180 -30 -90   XYZ
    dof rx
    limits (-10.0 170.0)
  end
  begin
     id 20
     name lwrist
     direction 1 -4.48983e-011 -1.24047e-026   
     length 1.43222   
     axis 9.05591e-015 90 90   XYZ
    dof ry
    limits (-180.0 0.0)
 end
  begin
     id 21 
     name lhand
     direction 1 -4.4892e-011 -2.48094e-026   
     length 0.722123   
     axis 1.58305e-014 90 90   XYZ
    dof rx rz
    limits (-90.0 90.0)
           (-45.0 45.0)
  end
  begin
     id 22 
     name lfingers
     direction 1 -4.48895e-011 -4.96187e-026   
     length 0.582194   
     axis 3.1661e-014 90 90   XYZ
    dof rx
    limits (0.0 90.0)
  end
  begin
     id 23
     name lthumb
     direction 0.707107 -6.34961e-011 0.707107   
     length 0.835918   
     axis -90 45 2.85299e-015   XYZ
    dof rx rz
    limits (-45.0 45.0)
           (-45.0 45.0)
  end
  begin
     id 24 
     name rclavicle
     direction -0.932635 0.324218 -0.15835   
     length 3.65819  
     axis 0 0 0   XYZ 
    dof ry rz
    limits (-10.0 20.0)
           (-20.0 0.0)
  end
  begin
     id 25 
     name rhumerus
     direction -1 -4.48965e-011 -4.02296e-027  
     length 5.44729   
     axis 180 30 90   XYZ
    dof rx ry rz
    limits (-90.0 60.0)
           (-90.0 90.0)
           (-90.0 90.0)
  end
  begin
     id 26 
     name rradius
     direction -1 -4.48957e-011 -8.81087e-027   
     length 3.08821   
     axis 180 30 90   XYZ
    dof rx
    limits (-10.0 170.0)
  end
  begin
     id 27 
     name rwrist
     direction -1 -4.49015e-011 -1.24047e-026   
     length 1.5441   
     axis 9.05591e-015 -90 -90   XYZ
    dof ry
    limits (-180.0 0.0)
  end
  begin
     id 28
     name rhand
     direction -1 -4.4891e-011 -2.48094e-026   
     length 0.821049   
     axis 1.58305e-014 -90 -90   XYZ
    dof rx rz
    limits (-90.0 90.0)
           (-45.0 45.0)
  end
  begin
     id 29
     name rfingers
     direction -1 -4.48985e-011 -4.96187e-026   
     length 0.661951   
     axis 3.1661e-014 -90 -90   XYZ
    dof rx
    limits (0.0 90.0)
  end
  begin
     id 30
     name rthumb
     direction -0.707107 -6.34906e-011 0.707107   
     length 0.950433   
     axis -90 -45 -2.85299e-015   XYZ
    dof rx rz
    limits (-45.0 45.0)
           (-45.0 45.0)
  end
:hierarchy
  begin
    root lhipjoint rhipjoint lowerback
    lhipjoint lfemur
    lfemur ltibia
    ltibia lfoot
    lfoot ltoes
    rhipjoint rfemur
    rfemur rtibia
    rtibia rfoot
    rfoot rtoes
    lowerback upperback
    upperback thorax
    thorax lowerneck lclavicle rclavicle
    lowerneck upperneck
    upperneck head
    lclavicle lhumerus
    lhumerus lradius
    lradius lwrist
    lwrist lhand lthumb
    lhand lfingers
    rclavicle rhumerus
    rhumerus rradius
    rradius rwrist
    rwrist rhand rthumb
    rhand rfingers
  end

#!OML:ASF F:\VICON\USERDATA\INSTALL\rory3\rory3.ASF
:FULLY-SPECIFIED
:DEGREES
1747
root 3.10596 17.6779 0.880083 -119.678 84.5117 -120.917
lowerback 9.69122 -1.82665 -5.34059
upperback -1.06411 -3.29156 -7.77297
thorax -6.75961 -1.45334 -4.75378
lowerneck -6.13799 -4.12223 -6.0026
upperneck 10.5135 -4.15666 -5.20617
head 4.63518 -2.49146 -0.950214
rclavicle -4.77083e-014 -1.01778e-013
rhumerus -88.2641 30.017 -110.761
rradius 108.485
rwrist 13.4474
rhand -5.64416 25.128
rfingers 7.12502
rthumb 20.1744 -3.84438
lclavicle -4.77083e-014 -1.01778e-013
lhumerus -16.4579 28.7495 8.93841
lradius 96.9527
lwrist 10.8946
lhand 0.770353 44.312
lfingers 7.12502
lthumb 26.328 72.5047
rfemur 0.86328 -3.27699 25.6372
rtibia 9.89556
rfoot -13.3392 -1.39756
rtoes -4.55187
lfemur -3.62389 -1.13882 -9.06886
ltibia 15.312
lfoot -13.4315 -0.842
ltoes -8.80663
1748
root 3.10178 17.6765 0.880918 -119.206 84.4296 -120.443
lowerback 9.73307 -1.78367 -5.35362
upperback -1.03805 -3.23702 -7.81801
thorax -6.75531 -1.42577 -4.80311
lowerneck -6.08525 -4.15841 -6.07328
upperneck 10.4766 -4.20028 -5.2255
head 4.61284 -2.51411 -0.944727
rclavicle -6.4605e-015 -2.54444e-014
rhumerus -88.2727 29.8781 -110.698
rradius 108.49
rwrist 13.5459
rhand -5.73488 25.2141
rfingers 7.12502
rthumb 20.0872 -3.76749
lclavicle -6.4605e-015 -2.54444e-014
lhumerus -16.3697 28.6862 8.96473
lradius 96.9586
lwrist 10.8512
lhand 1.03057 44.4259
lfingers 7.12502
lthumb 26.5771 72.5811
rfemur 0.873094 -3.27293 25.7327
rtibia 9.84075
rfoot -13.3253 -1.41499
rtoes -4.70594
lfemur -3.67091 -1.10554 -8.95044
ltibia 15.3806
lfoot -13.4704 -0.904897
ltoes -8.62061
1749
root 3.09637 17.6728 0.882045 -119.308 84.4639 -120.565
lowerback 9.77475 -1.74714 -5.52411
upperback -1.00863 -3.20696 -7.89537
thorax -6.74194 -1.403 -4.79532
lowerneck -6.08195 -4.18761 -6.15715
upperneck 10.4425 -4.23585 -5.19375
head 4.60314 -2.53204 -0.920583
rclavicle -1.13307e-014 5.08889e-014
rhumerus -88.2312 29.854 -110.692
rradius 108.442
rwrist 13.6061
rhand -5.83612 25.1754
rfingers 7.12502
rthumb 19.9899 -3.81636
lclavicle -1.13307e-014 5.08889e-014
lhumerus -16.2495 28.6929 9.07988
lradius 96.9374
lwrist 10.7597
lhand 1.17067 44.3474
lfingers 7.12502
lthumb 26.7112 72.4822
rfemur 0.928761 -3.25979 25.6939
rtibia 9.68394
rfoot -13.1996 -1.44317
rtoes -4.9038
lfemur -3.80496 -1.05992 -8.98107
ltibia 15.5661
lfoot -13.5264 -0.954844
ltoes -8.65255
1750
root 3.09232 17.6657 0.882175 -119.286 84.4681 -120.543
lowerback 9.82266 -1.74002 -5.65242
upperback -0.96218 -3.21073 -7.9733
thorax -6.71781 -1.39884 -4.80631
lowerneck -6.17296 -4.1729 -6.28249
upperneck 10.5145 -4.20533 -5.0637
head 4.65524 -2.51946 -0.857299
rclavicle 2.27608e-014 -3.49861e-014
rhumerus -88.1502 29.9009 -110.687
rradius 108.419
rwrist 13.6304
rhand -5.82858 25.1413
rfingers 7.12502
rthumb 19.9971 -3.84974
lclavicle 2.27608e-014 -3.49861e-014
lhumerus -16.184 28.7686 9.17781
lradius 96.8895
lwrist 10.7438
lhand 1.09528 44.2347
lfingers 7.12502
lthumb 26.639 72.3805
rfemur 1.0133 -3.25117 25.6885
rtibia 9.55823
rfoot -13.146 -1.43092
rtoes -4.80761
lfemur -3.8983 -1.09084 -8.98389
ltibia 15.7188
lfoot -13.6188 -0.939887
ltoes -8.71767
1751
root 3.09013 17.6613 0.882542 -119.09 84.4391 -120.323
lowerback 9.89152 -1.76164 -5.76302
upperback -0.93958 -3.25621 -8.03193
thorax -6.73289 -1.41563 -4.79983
lowerneck -6.22095 -4.14121 -6.28029
upperneck 10.6019 -4.14612 -5.11066
head 4.69607 -2.4955 -0.873638
rclavicle -2.38542e-015 3.18055e-015
rhumerus -88.1239 29.974 -110.722
rradius 108.39
rwrist 13.6446
rhand -5.69249 25.1232
rfingers 7.12502
rthumb 20.1279 -3.85413
lclavicle -2.38542e-015 3.18055e-015
lhumerus -16.2712 28.783 9.14793
lradius 96.8794
lwrist 10.7415
lhand 0.861287 44.1141
lfingers 7.12502
lthumb 26.4151 72.2937
rfemur 1.09851 -3.24438 25.7267
rtibia 9.45646
rfoot -13.1354 -1.44954
rtoes -4.83739
lfemur -3.93623 -1.10898 -8.93559
ltibia 15.8206
lfoot -13.6858 -0.991449
ltoes -8.36165
1752
root 3.08866 17.6663 0.883957 -118.998 84.4056 -120.233
lowerback 9.92477 -1.78206 -5.87201
upperback -0.913873 -3.29553 -8.10455
thorax -6.72491 -1.42968 -4.81095
lowerneck -6.11327 -4.14517 -6.20659
upperneck 10.4691 -4.16163 -5.2371
head 4.6198 -2.50012 -0.923791
rclavicle -3.78685e-014 -3.81667e-014
rhumerus -88.113 30.0043 -110.795
rradius 108.331
rwrist 13.6309
rhand -5.69149 25.1755
rfingers 7.12502
rthumb 20.1289 -3.80175
lclavicle -3.78685e-014 -3.81667e-014
lhumerus -16.3499 28.8044 9.04283
lradius 96.8974
lwrist 10.6984
lhand 0.816315 44.0873
lfingers 7.12502
lthumb 26.372 72.2734
rfemur 1.11235 -3.24798 25.7619
rtibia 9.37553
rfoot -13.0756 -1.5176
rtoes -5.08554
lfemur -3.97717 -1.12648 -8.89142
ltibia 15.8747
lfoot -13.6897 -1.00392
ltoes -8.4561
